<?xml version="1.0" encoding="UTF-8" standalone="no"?>
<!-- Generator: Adobe Illustrator 27.8.0, SVG Export Plug-In . SVG Version: 6.00 Build 0)  -->

<svg
   version="1.1"
   id="Calque_1"
   x="0px"
   y="0px"
   viewBox="0 0 539.07501 124.65"
   xml:space="preserve"
   width="539.07501"
   height="124.65"
   xmlns="http://www.w3.org/2000/svg"
   xmlns:svg="http://www.w3.org/2000/svg"><defs
   id="defs4438" />
<style
   type="text/css"
   id="style3742">
	.st0{fill:#1D2E55;}
	.st1{fill:#7DC6B6;}
	.st2{fill:none;}
	.st3{fill:#5AB49F;}
	.st4{font-family:'aAutobusOmnibus';}
	.st5{font-size:43.1707px;}
	.st6{fill:#FFFFFF;}
	.st7{font-size:50.8074px;}
	.st8{font-size:66.7755px;}
	.st9{font-size:41.697px;}
	.st10{font-size:54.8017px;}
	.st11{fill:none;stroke:#FFFFFF;stroke-width:2.1664;stroke-linecap:round;stroke-linejoin:round;stroke-miterlimit:10;}
</style>










<g
   id="V_x5F_2L_x5F_fonce"
   transform="translate(-1203.625,-1263.625)">
	<g
   id="g4036">
		<path
   class="st3"
   d="m 1389.9,1307.2 v 5.9 c 0,0.8 -0.4,1.1 -1.1,1.1 H 1374 c -5.7,0 -9.9,-1.6 -12.8,-4.8 -2.9,-3.2 -4.3,-7.8 -4.3,-13.8 0,-6 1.4,-10.7 4.3,-13.9 2.8,-3.2 7.1,-4.9 12.9,-4.9 h 14.8 c 0.8,0 1.1,0.4 1.1,1.1 v 5.9 c 0,0.8 -0.4,1.1 -1.1,1.1 H 1374 c -2.3,0 -4.1,0.8 -5.4,2.5 -1.3,1.7 -2,4.2 -2,7.7 0,3.5 0.6,6.2 1.9,8.1 1.2,1.9 3.1,2.9 5.6,2.9 h 14.8 c 0.6,0 1,0.3 1,1.1 z"
   id="path4000" />
		<path
   class="st3"
   d="m 1400.7,1309.9 c -3.1,-3.3 -4.7,-8.1 -4.7,-14.5 0,-6.4 1.5,-11.2 4.6,-14.4 3.1,-3.3 7.7,-4.9 13.8,-4.9 6.1,0 10.7,1.6 13.8,4.9 3.1,3.3 4.6,8.1 4.6,14.4 0,6.4 -1.6,11.2 -4.7,14.5 -3.1,3.3 -7.7,5 -13.8,5 -5.9,0 -10.5,-1.7 -13.6,-5 z m 13.8,-25.7 c -2.9,0 -5,1 -6.5,2.9 -1.5,1.9 -2.3,4.7 -2.3,8.3 0,3.7 0.8,6.5 2.3,8.4 1.5,2 3.7,2.9 6.5,2.9 2.8,0 5,-1 6.5,-2.9 1.5,-2 2.3,-4.8 2.3,-8.4 0,-3.7 -0.8,-6.4 -2.3,-8.3 -1.5,-1.9 -3.7,-2.9 -6.5,-2.9 z"
   id="path4002" />
		<path
   class="st3"
   d="m 1453.4,1276.1 c 0.1,0 0.1,0 0,0 5.6,0 9.1,1.3 10.7,3.9 0.1,0.1 0.1,0.2 0.2,0.3 1.4,-2.8 4.9,-4.2 10.4,-4.2 5.5,0 9.4,1.3 11.5,3.9 2.1,2.6 3.2,6.2 3.2,10.8 v 22.3 c 0,0.8 -0.4,1.1 -1.1,1.1 h -6.9 c -0.8,0 -1.1,-0.4 -1.1,-1.1 v -22.3 c 0,-2.1 -0.4,-3.6 -1.3,-4.8 -0.9,-1.1 -2.4,-1.7 -4.6,-1.7 -2.2,0 -3.6,0.5 -4.3,1.6 -0.6,1.1 -1,2.7 -1,4.8 v 22.3 c 0,0.8 -0.4,1.1 -1.1,1.1 h -6.9 c -0.8,0 -1.1,-0.4 -1.1,-1.1 v -22.3 c 0,-2.1 -0.4,-3.6 -1.3,-4.8 -0.9,-1.1 -2.4,-1.7 -4.6,-1.7 -2.2,0 -3.6,0.5 -4.3,1.6 -0.6,1.1 -1,2.7 -1,4.8 v 22.3 c 0,0.8 -0.4,1.1 -1.1,1.1 h -6.9 c -0.8,0 -1.1,-0.4 -1.1,-1.1 v -22.3 c 0,-4.5 0.9,-8.1 2.8,-10.7 1.7,-2.5 5.4,-3.8 10.9,-3.8 z"
   id="path4004" />
		<path
   class="st3"
   d="m 1530.4,1290.3 c 0,3.5 -1.1,6.5 -3.3,9 -2.2,2.5 -5.5,3.8 -9.8,3.8 H 1506 v 9.9 c 0,0.8 -0.4,1.1 -1.1,1.1 h -6.9 c -0.8,0 -1.1,-0.4 -1.1,-1.1 v -35.1 c 0,-0.8 0.4,-1.1 1.1,-1.1 h 19.3 c 4.2,0 7.4,1.4 9.7,4.1 2.3,2.8 3.4,5.9 3.4,9.4 z m -24.4,-5.4 v 10.1 h 11.3 c 2.6,0 3.9,-1.7 3.9,-5 0,-3.4 -1.3,-5 -3.9,-5 H 1506 Z"
   id="path4006" />
		<path
   class="st3"
   d="m 1538,1276.8 h 6.9 c 0.8,0 1.1,0.4 1.1,1.1 v 28.1 h 20.6 c 0.8,0 1.1,0.4 1.1,1.1 v 5.9 c 0,0.8 -0.4,1.1 -1.1,1.1 H 1538 c -0.8,0 -1.1,-0.4 -1.1,-1.1 v -35.1 c 0,-0.7 0.4,-1.1 1.1,-1.1 z"
   id="path4008" />
		<path
   class="st3"
   d="m 1575,1276.8 h 6.9 c 0.8,0 1.1,0.4 1.1,1.1 v 35.1 c 0,0.8 -0.4,1.1 -1.1,1.1 h -6.9 c -0.8,0 -1.1,-0.4 -1.1,-1.1 v -35.1 c -0.1,-0.7 0.3,-1.1 1.1,-1.1 z"
   id="path4010" />
		<path
   class="st3"
   d="m 1591.3,1314.2 c -0.7,0 -1.1,-0.4 -1.1,-1.1 v -13.8 c 0,-8.1 1.6,-13.9 4.8,-17.3 3.2,-3.4 7.8,-5.2 13.7,-5.2 h 12.9 c 0.7,0 1.1,0.4 1.1,1.1 v 35.1 c 0,0.7 -0.4,1.1 -1.1,1.1 h -6.9 c -0.7,0 -1.1,-0.4 -1.1,-1.1 v -5.7 h -14.2 v 5.7 c 0,0.7 -0.4,1.1 -1.1,1.1 h -7 z m 22.3,-29.3 h -4.9 c -3,0 -5.3,1.1 -6.9,3.2 -1.6,2.1 -2.4,5.8 -2.4,11.1 h 14.2 z"
   id="path4012" />
		<path
   class="st3"
   d="m 1661.7,1314.2 h -6.9 c -0.8,0 -1.1,-0.4 -1.1,-1.1 v -17.4 c 0,-3.7 -0.7,-6.4 -2,-8.2 -1.3,-1.7 -3.1,-2.6 -5.4,-2.6 h -6.8 v 28.1 c 0,0.8 -0.4,1.1 -1.1,1.1 h -6.9 c -0.8,0 -1.1,-0.4 -1.1,-1.1 v -35.1 c 0,-0.8 0.4,-1.1 1.1,-1.1 h 14.9 c 5.5,0 9.7,1.6 12.4,4.9 2.7,3.2 4.1,7.9 4.1,14 v 17.4 c -0.1,0.7 -0.5,1.1 -1.2,1.1 z"
   id="path4014" />
		<path
   class="st3"
   d="m 1702.1,1307.2 v 5.9 c 0,0.8 -0.4,1.1 -1.1,1.1 h -14.8 c -5.7,0 -9.9,-1.6 -12.8,-4.8 -2.9,-3.2 -4.3,-7.8 -4.3,-13.8 0,-6 1.4,-10.7 4.3,-13.9 2.8,-3.2 7.1,-4.9 12.9,-4.9 h 14.8 c 0.8,0 1.1,0.4 1.1,1.1 v 5.9 c 0,0.8 -0.4,1.1 -1.1,1.1 h -14.8 c -2.3,0 -4.1,0.8 -5.4,2.5 -1.3,1.7 -2,4.2 -2,7.7 0,3.5 0.6,6.2 1.9,8.1 1.3,1.9 3.1,2.9 5.6,2.9 h 14.8 c 0.5,0 0.9,0.3 0.9,1.1 z"
   id="path4016" />
		<path
   class="st3"
   d="m 1718.4,1299.6 v 6.5 h 21.6 c 0.8,0 1.1,0.4 1.1,1.1 v 5.9 c 0,0.8 -0.4,1.1 -1.1,1.1 h -29.7 c -0.8,0 -1.1,-0.4 -1.1,-1.1 V 1278 c 0,-0.8 0.4,-1.1 1.1,-1.1 h 29.2 c 0.8,0 1.1,0.4 1.1,1.1 v 5.9 c 0,0.8 -0.4,1.1 -1.1,1.1 h -21.1 v 6.5 h 19.6 c 0.8,0 1.1,0.4 1.1,1.1 v 5.9 c 0,0.8 -0.4,1.1 -1.1,1.1 z"
   id="path4018" />
		<path
   class="st6"
   d="m 1393.4,1351 c 0.4,0.2 0.8,0.3 1.2,0.5 4.2,2 6.3,8.4 6.3,19.1 v 1.6 c 0,1 -0.5,1.5 -1.5,1.5 h -9.1 c -1,0 -1.5,-0.5 -1.5,-1.5 v -1.6 c 0,-7 -1.1,-11.2 -3.2,-12.6 -2.1,-1.5 -5.2,-2.2 -9.1,-2.2 h -7.5 v 16.4 c 0,1 -0.5,1.5 -1.4,1.5 h -9.1 c -1,0 -1.5,-0.5 -1.4,-1.5 V 1326 c 0,-1 0.5,-1.5 1.4,-1.5 h 25.4 c 5.4,0 9.6,1.3 12.7,3.9 3,2.6 4.6,6.2 4.6,10.8 -0.1,6 -2.6,9.9 -7.8,11.8 z m -24.4,-15.8 v 9.9 h 14.9 c 3.4,0 5.2,-1.7 5.2,-5.1 0,-3.2 -1.7,-4.8 -5.2,-4.8 z"
   id="path4020" />
		<path
   class="st6"
   d="m 1416.3,1368.1 c -4.1,-4.3 -6.1,-10.7 -6.1,-19 0,-8.3 2,-14.7 6.1,-19 4.1,-4.3 10.1,-6.5 18.1,-6.5 8,0 14.1,2.2 18.1,6.5 4.1,4.3 6.1,10.6 6.1,19 0,8.3 -2,14.7 -6.1,19 -4.1,4.3 -10.1,6.5 -18.1,6.5 -7.9,0 -14,-2.1 -18.1,-6.5 z m 18.1,-33.8 c -3.8,0 -6.6,1.3 -8.6,3.7 -2,2.5 -3,6.2 -3,11 0,4.8 1,8.5 3,11.1 2,2.6 4.9,3.8 8.6,3.8 3.7,0 6.6,-1.3 8.6,-3.8 2,-2.6 3,-6.2 3,-11.1 0,-4.8 -1,-8.5 -3,-11 -1.9,-2.4 -4.8,-3.7 -8.6,-3.7 z"
   id="path4022" />
		<path
   class="st6"
   d="m 1511.7,1360.5 c 0,4.3 -1.5,7.6 -4.6,9.8 -3,2.2 -7.3,3.4 -12.7,3.4 H 1469 c -1,0 -1.5,-0.5 -1.4,-1.5 V 1326 c 0,-1 0.5,-1.5 1.4,-1.5 h 23.5 c 5.4,0 9.6,1.1 12.6,3.4 3,2.3 4.5,5.8 4.5,10.5 0,4.7 -1.8,8.2 -5.5,10.2 5.1,2.1 7.6,6.1 7.6,11.9 z m -32.1,-16.7 h 12.9 c 3.4,0 5.2,-1.4 5.2,-4.1 0,-3 -1.7,-4.4 -5.2,-4.4 h -12.9 z m 0,19.2 h 14.9 c 3.4,0 5.2,-1.4 5.2,-4.1 0,-3 -1.7,-4.4 -5.2,-4.4 h -14.9 z"
   id="path4024" />
		<path
   class="st6"
   d="m 1525.4,1368.1 c -4.1,-4.3 -6.1,-10.7 -6.1,-19 0,-8.3 2,-14.7 6.1,-19 4.1,-4.3 10.1,-6.5 18.1,-6.5 8,0 14.1,2.2 18.1,6.5 4.1,4.3 6.1,10.6 6.1,19 0,8.3 -2,14.7 -6.1,19 -4.1,4.3 -10.1,6.5 -18.1,6.5 -8,0 -14,-2.1 -18.1,-6.5 z m 18.1,-33.8 c -3.8,0 -6.6,1.3 -8.6,3.7 -2,2.5 -3,6.2 -3,11 0,4.8 1,8.5 3,11.1 2,2.6 4.9,3.8 8.6,3.8 3.7,0 6.6,-1.3 8.6,-3.8 2,-2.6 3,-6.2 3,-11.1 0,-4.8 -1,-8.5 -3,-11 -2,-2.4 -4.9,-3.7 -8.6,-3.7 z"
   id="path4026" />
		<path
   class="st6"
   d="m 1576,1335.2 c -1,0 -1.5,-0.5 -1.5,-1.4 v -7.8 c 0,-1 0.5,-1.5 1.5,-1.5 h 39.8 c 1,0 1.5,0.5 1.4,1.5 v 7.8 c 0,1 -0.5,1.5 -1.4,1.4 h -13.9 v 37 c 0,1 -0.5,1.5 -1.5,1.5 h -9.1 c -1,0 -1.5,-0.5 -1.4,-1.5 v -37 z"
   id="path4028" />
		<path
   class="st6"
   d="m 1627.7,1324.5 h 9.1 c 1,0 1.5,0.5 1.4,1.5 v 46.2 c 0,1 -0.5,1.5 -1.4,1.5 h -9.1 c -1,0 -1.5,-0.5 -1.4,-1.5 V 1326 c -0.1,-1 0.4,-1.5 1.4,-1.5 z"
   id="path4030" />
		<path
   class="st6"
   d="m 1690.3,1364.5 v 7.7 c 0,1 -0.5,1.5 -1.5,1.5 h -19.4 c -7.4,0 -13,-2.1 -16.8,-6.3 -3.8,-4.2 -5.7,-10.3 -5.7,-18.2 0,-7.9 1.9,-14 5.6,-18.3 3.7,-4.3 9.4,-6.4 16.9,-6.4 h 19.4 c 1,0 1.5,0.5 1.5,1.5 v 7.8 c 0,1 -0.5,1.5 -1.5,1.4 h -19.4 c -3,0 -5.4,1.1 -7.1,3.3 -1.8,2.2 -2.6,5.5 -2.6,10.1 0,4.6 0.8,8.1 2.4,10.6 1.6,2.5 4.1,3.8 7.3,3.8 h 19.4 c 1,0 1.5,0.5 1.5,1.5 z"
   id="path4032" />
		<path
   class="st6"
   d="m 1717.7,1343.8 h 6.5 c 6.3,0 11,1.3 14,3.9 3,2.6 4.5,6.3 4.5,11.2 0,4.8 -1.6,8.5 -4.7,11 -3.1,2.5 -7.7,3.8 -13.8,3.8 h -23.5 c -1,0 -1.5,-0.5 -1.4,-1.5 v -7.7 c 0,-1 0.5,-1.5 1.4,-1.5 h 23.5 c 3.9,0 5.8,-1.4 5.8,-4.1 0,-3 -1.9,-4.4 -5.8,-4.4 h -6.5 c -6.3,0 -11,-1.3 -14,-3.9 -3,-2.6 -4.5,-6.3 -4.5,-11.2 0,-4.8 1.6,-8.5 4.7,-11 3.1,-2.5 7.7,-3.8 13.8,-3.8 h 22.1 c 1,0 1.5,0.5 1.5,1.5 v 7.8 c 0,1 -0.5,1.5 -1.5,1.4 h -22.1 c -3.9,0 -5.8,1.4 -5.8,4.2 0,2.8 1.9,4.3 5.8,4.3 z"
   id="path4034" />
	</g>
	<path
   class="st1"
   d="m 1325.5,1332.5 v 0 c -3.7,3.7 -9.6,3.7 -13.2,0 v 0 c -3.7,-3.7 -3.7,-9.6 0,-13.2 v 0 c 3.7,-3.7 9.6,-3.7 13.2,0 v 0 c 3.7,3.6 3.7,9.5 0,13.2 z"
   id="path4038" />
	<path
   class="st6"
   d="m 1285.8,1319.3 13.2,-13.2 c 3.7,-3.7 3.7,-9.6 0,-13.2 l -26.5,-26.5 c -3.7,-3.7 -9.6,-3.7 -13.2,0 v 0 c -3.7,3.7 -3.7,9.6 0,13.2 l 13.2,13.2 c 3.7,3.7 3.7,9.6 0,13.2 l -13.2,13.2 c -3.7,3.7 -3.7,9.6 0,13.2 l 26.5,26.5 c 3.7,3.7 9.6,3.7 13.2,0 v 0 c 3.7,-3.7 3.7,-9.6 0,-13.2 l -13.2,-13.2 c -3.6,-3.7 -3.6,-9.6 0,-13.2 z"
   id="path4040" />
	<path
   class="st6"
   d="m 1232.9,1319.3 13.2,-13.2 c 3.7,-3.7 3.7,-9.6 0,-13.2 v 0 c -3.7,-3.7 -9.6,-3.7 -13.2,0 l -26.5,26.5 c -3.7,3.7 -3.7,9.6 0,13.2 l 52.9,52.9 c 3.7,3.7 9.6,3.7 13.2,0 v 0 c 3.7,-3.7 3.7,-9.6 0,-13.2 l -39.7,-39.7 c -3.6,-3.8 -3.6,-9.7 0.1,-13.3 z"
   id="path4042" />
</g>








</svg>
