<?xml version="1.0" encoding="UTF-8" standalone="no"?>
<!-- Created with Inkscape (http://www.inkscape.org/) -->

<svg
   width="11.615683mm"
   height="24.828806mm"
   viewBox="0 0 11.615682 24.828806"
   version="1.1"
   id="svg1"
   xml:space="preserve"
   inkscape:version="1.3 (0e150ed6c4, 2023-07-21)"
   sodipodi:docname="logo_emio_labs_dark.svg"
   inkscape:export-filename="..\..\..\EmioLabs\assets\data\images\icons\logo_emio_labs_dark.png"
   inkscape:export-xdpi="96"
   inkscape:export-ydpi="96"
   xmlns:inkscape="http://www.inkscape.org/namespaces/inkscape"
   xmlns:sodipodi="http://sodipodi.sourceforge.net/DTD/sodipodi-0.dtd"
   xmlns="http://www.w3.org/2000/svg"
   xmlns:svg="http://www.w3.org/2000/svg"><sodipodi:namedview
     id="namedview1"
     pagecolor="#ffffff"
     bordercolor="#000000"
     borderopacity="0.25"
     inkscape:showpageshadow="2"
     inkscape:pageopacity="0.0"
     inkscape:pagecheckerboard="0"
     inkscape:deskcolor="#d1d1d1"
     inkscape:document-units="mm"
     inkscape:zoom="4.0000002"
     inkscape:cx="5.1249997"
     inkscape:cy="-10.374999"
     inkscape:window-width="2560"
     inkscape:window-height="1511"
     inkscape:window-x="3191"
     inkscape:window-y="-9"
     inkscape:window-maximized="1"
     inkscape:current-layer="layer1"
     showguides="true"
     showgrid="false"><sodipodi:guide
       position="-58.739396,62.041576"
       orientation="0,-1"
       id="guide2"
       inkscape:locked="false" /><sodipodi:guide
       position="14.368281,106.57477"
       orientation="0,-1"
       id="guide3"
       inkscape:locked="false" /><sodipodi:guide
       position="9.0153348,24.209075"
       orientation="1,0"
       id="guide4"
       inkscape:locked="false" /><sodipodi:guide
       position="-55.370466,42.382474"
       orientation="0,-1"
       id="guide5"
       inkscape:locked="false" /><sodipodi:guide
       position="12.944197,17.73113"
       orientation="0,-1"
       id="guide6"
       inkscape:locked="false" /><sodipodi:guide
       position="18.055909,67.002515"
       orientation="1,0"
       id="guide7"
       inkscape:locked="false" /><sodipodi:guide
       position="16.00539,29.497825"
       orientation="1,0"
       id="guide8"
       inkscape:locked="false" /></sodipodi:namedview><defs
     id="defs1" /><g
     inkscape:label="Calque 1"
     inkscape:groupmode="layer"
     id="layer1"
     transform="translate(-32.545653,-108.59154)"><path
       class="st1"
       d="m 42.898814,114.34151 v 0 c 0.728814,0.72882 0.728814,1.90802 0,2.63683 v 0 c -0.728814,0.72882 -1.908014,0.72882 -2.636828,0 v 0 c -0.728814,-0.72881 -0.728814,-1.90801 0,-2.63683 v 0 c 0.728814,-0.72881 1.908014,-0.72881 2.636828,0 z"
       id="path4232-9-7-6"
       style="fill:#ffffff;fill-opacity:1;stroke-width:0.0818893" /><g
       id="g1"
       transform="translate(1.5213541)"><path
         class="st0"
         d="m 36.852755,117.04865 2.636828,2.63683 c 0.728814,0.72881 0.728814,1.90801 0,2.63683 l -5.281846,5.28186 c -0.728814,0.72881 -1.908014,0.72881 -2.636828,0 v 0 c -0.728814,-0.72882 -0.728814,-1.90802 0,-2.63683 l 2.636828,-2.63684 c 0.728814,-0.72882 0.728814,-1.90802 0,-2.63683 l -2.636828,-2.63683 c -0.728814,-0.72881 -0.728814,-1.90801 0,-2.63683 l 5.281846,-5.28186 c 0.728814,-0.72881 1.908014,-0.72881 2.636828,0 v 0 c 0.728814,0.72882 0.728814,1.90802 0,2.63683 l -2.636828,2.63684 c -0.728814,0.72882 -0.728814,1.90802 0,2.63683 z"
         id="path4234-9-4-6-7"
         style="fill:#7dc6b6;fill-opacity:1;stroke-width:0.0818893" /><path
         class="st0"
         d="m 36.85685,124.96324 2.636828,-2.63683 c 0.728814,-0.72882 0.728814,-1.90802 0,-2.63683 l -5.281846,-5.28186 c -0.728814,-0.72881 -1.908014,-0.72881 -2.636828,0 v 0 c -0.728814,0.72881 -0.728814,1.90801 0,2.63683 l 2.636828,2.63684 c 0.728814,0.72881 0.728814,1.90802 0,2.63683 l -2.636828,2.63683 c -0.728814,0.72881 -0.728814,1.90801 0,2.63683 l 5.281846,5.28186 c 0.728814,0.72881 1.908014,0.72881 2.636828,0 v 0 c 0.728814,-0.72882 0.728814,-1.90802 0,-2.63683 l -2.636828,-2.63684 c -0.728814,-0.72882 -0.728814,-1.90802 0,-2.63683 z"
         id="path4234-9-4-5"
         style="fill:#7dc6b6;fill-opacity:1;stroke-width:0.0818893" /></g></g><style
     type="text/css"
     id="style3742">&#10;	.st0{fill:#1D2E55;}&#10;	.st1{fill:#7DC6B6;}&#10;	.st2{fill:none;}&#10;	.st3{fill:#5AB49F;}&#10;	.st4{font-family:'aAutobusOmnibus';}&#10;	.st5{font-size:43.1707px;}&#10;	.st6{fill:#FFFFFF;}&#10;	.st7{font-size:50.8074px;}&#10;	.st8{font-size:66.7755px;}&#10;	.st9{font-size:41.697px;}&#10;	.st10{font-size:54.8017px;}&#10;	.st11{fill:none;stroke:#FFFFFF;stroke-width:2.1664;stroke-linecap:round;stroke-linejoin:round;stroke-miterlimit:10;}&#10;</style><style
     type="text/css"
     id="style3742-5">&#10;	.st0{fill:#1D2E55;}&#10;	.st1{fill:#7DC6B6;}&#10;	.st2{fill:none;}&#10;	.st3{fill:#5AB49F;}&#10;	.st4{font-family:'aAutobusOmnibus';}&#10;	.st5{font-size:43.1707px;}&#10;	.st6{fill:#FFFFFF;}&#10;	.st7{font-size:50.8074px;}&#10;	.st8{font-size:66.7755px;}&#10;	.st9{font-size:41.697px;}&#10;	.st10{font-size:54.8017px;}&#10;	.st11{fill:none;stroke:#FFFFFF;stroke-width:2.1664;stroke-linecap:round;stroke-linejoin:round;stroke-miterlimit:10;}&#10;</style></svg>
