<?xml version="1.0" encoding="UTF-8" standalone="no"?>
<!-- Generator: Adobe Illustrator 27.8.0, SVG Export Plug-In . SVG Version: 6.00 Build 0)  -->

<svg
   version="1.1"
   id="Calque_1"
   x="0px"
   y="0px"
   viewBox="0 0 303.45001 303.45001"
   xml:space="preserve"
   width="303.45001"
   height="303.45001"
   xmlns="http://www.w3.org/2000/svg"
   xmlns:svg="http://www.w3.org/2000/svg"><defs
   id="defs4438" />
<style
   type="text/css"
   id="style3742">
	.st0{fill:#1D2E55;}
	.st1{fill:#7DC6B6;}
	.st2{fill:none;}
	.st3{fill:#5AB49F;}
	.st4{font-family:'aAutobusOmnibus';}
	.st5{font-size:43.1707px;}
	.st6{fill:#FFFFFF;}
	.st7{font-size:50.8074px;}
	.st8{font-size:66.7755px;}
	.st9{font-size:41.697px;}
	.st10{font-size:54.8017px;}
	.st11{fill:none;stroke:#FFFFFF;stroke-width:2.1664;stroke-linecap:round;stroke-linejoin:round;stroke-miterlimit:10;}
</style>
















<g
   id="symbole_x5F_clair"
   transform="translate(-1012.725,-176.625)">
	<path
   class="st1"
   d="m 1309.5,344.4 v 0 c -8.9,8.9 -23.3,8.9 -32.2,0 v 0 c -8.9,-8.9 -8.9,-23.3 0,-32.2 v 0 c 8.9,-8.9 23.3,-8.9 32.2,0 v 0 c 8.9,8.9 8.9,23.3 0,32.2 z"
   id="path4232" />
	<path
   class="st0"
   d="M 1212.8,312.2 1245,280 c 8.9,-8.9 8.9,-23.3 0,-32.2 l -64.5,-64.5 c -8.9,-8.9 -23.3,-8.9 -32.2,0 v 0 c -8.9,8.9 -8.9,23.3 0,32.2 l 32.2,32.2 c 8.9,8.9 8.9,23.3 0,32.2 l -32.2,32.2 c -8.9,8.9 -8.9,23.3 0,32.2 l 64.5,64.5 c 8.9,8.9 23.3,8.9 32.2,0 v 0 c 8.9,-8.9 8.9,-23.3 0,-32.2 l -32.2,-32.2 c -8.9,-8.9 -8.9,-23.3 0,-32.2 z"
   id="path4234" />
	<path
   class="st0"
   d="m 1083.9,312.2 32.2,-32.2 c 8.9,-8.9 8.9,-23.3 0,-32.2 v 0 c -8.9,-8.9 -23.3,-8.9 -32.2,0 l -64.5,64.5 c -8.9,8.9 -8.9,23.3 0,32.2 l 128.9,128.9 c 8.9,8.9 23.3,8.9 32.2,0 v 0 c 8.9,-8.9 8.9,-23.3 0,-32.2 l -96.7,-96.7 c -8.8,-9 -8.8,-23.4 0.1,-32.3 z"
   id="path4236" />
</g>


</svg>
