<?xml version="1.0" encoding="UTF-8" standalone="no"?>
<!-- Generator: Adobe Illustrator 27.8.0, SVG Export Plug-In . SVG Version: 6.00 Build 0)  -->

<svg
   version="1.1"
   id="Calque_1"
   x="0px"
   y="0px"
   viewBox="0 0 652.77502 57.450001"
   xml:space="preserve"
   width="652.77502"
   height="57.450001"
   xmlns="http://www.w3.org/2000/svg"
   xmlns:svg="http://www.w3.org/2000/svg"><defs
   id="defs4438" />
<style
   type="text/css"
   id="style3742">
	.st0{fill:#1D2E55;}
	.st1{fill:#7DC6B6;}
	.st2{fill:none;}
	.st3{fill:#5AB49F;}
	.st4{font-family:'aAutobusOmnibus';}
	.st5{font-size:43.1707px;}
	.st6{fill:#FFFFFF;}
	.st7{font-size:50.8074px;}
	.st8{font-size:66.7755px;}
	.st9{font-size:41.697px;}
	.st10{font-size:54.8017px;}
	.st11{fill:none;stroke:#FFFFFF;stroke-width:2.1664;stroke-linecap:round;stroke-linejoin:round;stroke-miterlimit:10;}
</style>









<g
   id="V_x5F_1L_x5F_fonce"
   transform="translate(-1148.925,-1488.325)">
	<g
   id="g3991">
		<path
   class="st3"
   d="m 1249.2,1526.8 v 5 c 0,0.6 -0.3,1 -1,1 h -12.6 c -4.8,0 -8.4,-1.4 -10.9,-4.1 -2.4,-2.7 -3.7,-6.6 -3.7,-11.8 0,-5.1 1.2,-9.1 3.6,-11.8 2.4,-2.8 6.1,-4.1 10.9,-4.1 h 12.6 c 0.6,0 1,0.3 1,1 v 5 c 0,0.6 -0.3,1 -1,0.9 h -12.6 c -1.9,0 -3.5,0.7 -4.6,2.1 -1.1,1.4 -1.7,3.6 -1.7,6.5 0,3 0.5,5.2 1.6,6.9 1.1,1.6 2.6,2.4 4.7,2.4 h 12.6 c 0.8,0 1.1,0.3 1.1,1 z"
   id="path3955" />
		<path
   class="st3"
   d="m 1258.4,1529.1 c -2.6,-2.8 -4,-6.9 -4,-12.3 0,-5.4 1.3,-9.5 3.9,-12.3 2.6,-2.8 6.5,-4.2 11.7,-4.2 5.2,0 9.1,1.4 11.7,4.2 2.6,2.8 3.9,6.9 3.9,12.3 0,5.4 -1.3,9.5 -4,12.3 -2.7,2.8 -6.5,4.2 -11.7,4.2 -5,0 -8.9,-1.4 -11.5,-4.2 z m 11.7,-21.8 c -2.4,0 -4.3,0.8 -5.6,2.4 -1.3,1.6 -1.9,4 -1.9,7.1 0,3.1 0.6,5.5 1.9,7.1 1.3,1.7 3.1,2.5 5.5,2.5 2.4,0 4.2,-0.8 5.5,-2.5 1.3,-1.7 1.9,-4 1.9,-7.1 0,-3.1 -0.6,-5.5 -1.9,-7.1 -1.1,-1.6 -3,-2.4 -5.4,-2.4 z"
   id="path3957" />
		<path
   class="st3"
   d="m 1303.2,1500.4 c 0,0 0.1,0 0,0 4.7,0 7.7,1.1 9.1,3.3 0.1,0.1 0.1,0.2 0.2,0.3 1.2,-2.4 4.1,-3.6 8.9,-3.6 4.7,0 8,1.1 9.8,3.3 1.8,2.2 2.7,5.3 2.7,9.1 v 18.9 c 0,0.6 -0.3,1 -0.9,1 h -5.9 c -0.6,0 -1,-0.3 -0.9,-1 v -18.9 c 0,-1.7 -0.4,-3.1 -1.1,-4 -0.7,-1 -2.1,-1.4 -3.9,-1.4 -1.9,0 -3.1,0.5 -3.6,1.4 -0.5,0.9 -0.8,2.3 -0.8,4.1 v 18.9 c 0,0.6 -0.3,1 -1,1 h -5.9 c -0.6,0 -1,-0.3 -1,-1 v -18.9 c 0,-1.7 -0.4,-3.1 -1.1,-4 -0.7,-1 -2.1,-1.4 -3.9,-1.4 -1.9,0 -3.1,0.5 -3.6,1.4 -0.5,0.9 -0.8,2.3 -0.8,4.1 v 18.9 c 0,0.6 -0.3,1 -1,1 h -5.9 c -0.6,0 -1,-0.3 -0.9,-1 V 1513 c 0,-3.9 0.8,-6.9 2.4,-9.1 1.3,-2.4 4.4,-3.5 9.1,-3.5 z"
   id="path3959" />
		<path
   class="st3"
   d="m 1368.6,1512.4 c 0,3 -0.9,5.5 -2.8,7.7 -1.9,2.1 -4.7,3.2 -8.3,3.2 h -9.6 v 8.4 c 0,0.6 -0.3,1 -0.9,1 h -5.9 c -0.6,0 -1,-0.3 -0.9,-1 v -29.8 c 0,-0.6 0.3,-1 0.9,-1 h 16.4 c 3.5,0 6.3,1.2 8.2,3.5 2,2.4 2.9,5.1 2.9,8 z m -20.7,-4.5 v 8.6 h 9.6 c 2.2,0 3.3,-1.4 3.3,-4.3 0,-2.9 -1.1,-4.3 -3.3,-4.3 z"
   id="path3961" />
		<path
   class="st3"
   d="m 1375.1,1500.9 h 5.9 c 0.6,0 1,0.3 0.9,1 v 23.9 h 17.5 c 0.6,0 1,0.3 0.9,1 v 5 c 0,0.6 -0.3,1 -0.9,1 H 1375 c -0.6,0 -1,-0.3 -0.9,-1 V 1502 c 0,-0.7 0.3,-1.1 1,-1.1 z"
   id="path3963" />
		<path
   class="st3"
   d="m 1406.5,1500.9 h 5.9 c 0.6,0 1,0.3 0.9,1 v 29.8 c 0,0.6 -0.3,1 -0.9,1 h -5.9 c -0.6,0 -1,-0.3 -0.9,-1 v -29.8 c -0.1,-0.6 0.2,-1 0.9,-1 z"
   id="path3965" />
		<path
   class="st3"
   d="m 1420.3,1532.7 c -0.6,0 -0.9,-0.3 -0.9,-1 V 1520 c 0,-6.9 1.3,-11.8 4,-14.7 2.7,-2.9 6.6,-4.4 11.7,-4.4 h 10.9 c 0.6,0 0.9,0.3 1,1 v 29.8 c 0,0.6 -0.3,0.9 -1,1 h -5.9 c -0.6,0 -0.9,-0.3 -0.9,-1 v -4.8 h -12.1 v 4.8 c 0,0.6 -0.3,0.9 -1,1 z m 19,-24.8 h -4.1 c -2.6,0 -4.5,0.9 -5.9,2.7 -1.4,1.8 -2.1,5 -2.1,9.4 h 12.1 z"
   id="path3967" />
		<path
   class="st3"
   d="m 1480.2,1532.7 h -5.9 c -0.6,0 -1,-0.4 -0.9,-1 V 1517 c 0,-3.1 -0.6,-5.5 -1.7,-6.9 -1.1,-1.5 -2.7,-2.2 -4.6,-2.2 h -5.8 v 23.9 c 0,0.6 -0.3,1 -0.9,1 h -5.9 c -0.6,0 -1,-0.4 -0.9,-1 V 1502 c 0,-0.6 0.3,-1 0.9,-1 h 12.6 c 4.7,0 8.2,1.4 10.5,4.1 2.3,2.8 3.5,6.7 3.5,11.9 v 14.8 c 0,0.6 -0.3,0.9 -0.9,0.9 z"
   id="path3969" />
		<path
   class="st3"
   d="m 1514.5,1526.8 v 5 c 0,0.6 -0.3,1 -1,1 H 1501 c -4.8,0 -8.4,-1.4 -10.9,-4.1 -2.4,-2.7 -3.7,-6.6 -3.7,-11.8 0,-5.1 1.2,-9.1 3.6,-11.8 2.4,-2.8 6.1,-4.1 10.9,-4.1 h 12.6 c 0.6,0 1,0.3 1,1 v 5 c 0,0.6 -0.3,1 -1,0.9 H 1501 c -1.9,0 -3.5,0.7 -4.6,2.1 -1.1,1.4 -1.7,3.6 -1.7,6.5 0,3 0.5,5.2 1.6,6.9 1.1,1.6 2.6,2.4 4.7,2.4 h 12.6 c 0.6,0 0.9,0.3 0.9,1 z"
   id="path3971" />
		<path
   class="st3"
   d="m 1528.3,1520.3 v 5.5 h 18.4 c 0.6,0 1,0.3 1,1 v 5 c 0,0.6 -0.3,1 -1,1 h -25.2 c -0.6,0 -1,-0.3 -0.9,-1 V 1502 c 0,-0.6 0.3,-1 0.9,-1 h 24.8 c 0.6,0 1,0.3 1,1 v 5 c 0,0.6 -0.3,1 -1,0.9 h -18 v 5.5 h 16.7 c 0.6,0 1,0.3 1,1 v 5 c 0,0.6 -0.3,1 -1,0.9 z"
   id="path3973" />
		<path
   class="st6"
   d="m 1577.2,1518.1 c 0.3,0.1 0.5,0.2 0.8,0.3 2.7,1.3 4.1,5.4 4.1,12.4 v 1 c 0,0.6 -0.4,1 -1,1 h -5.9 c -0.6,0 -1,-0.4 -1,-1 v -1 c 0,-4.5 -0.7,-7.2 -2.1,-8.2 -1.4,-0.9 -3.3,-1.4 -5.9,-1.4 h -4.8 v 10.6 c 0,0.6 -0.3,1 -0.9,1 h -5.9 c -0.6,0 -1,-0.3 -0.9,-1 V 1502 c 0,-0.6 0.3,-1 0.9,-1 h 16.4 c 3.5,0 6.2,0.9 8.2,2.6 2,1.7 3,4 3,7 0,3.7 -1.6,6.2 -5,7.5 z m -15.7,-10.2 v 6.4 h 9.6 c 2.2,0 3.3,-1.1 3.3,-3.3 0,-2.1 -1.1,-3.1 -3.3,-3.1 z"
   id="path3975" />
		<path
   class="st6"
   d="m 1591.4,1529.1 c -2.6,-2.8 -4,-6.9 -4,-12.3 0,-5.4 1.3,-9.5 3.9,-12.3 2.6,-2.8 6.5,-4.2 11.7,-4.2 5.2,0 9.1,1.4 11.7,4.2 2.6,2.8 3.9,6.9 3.9,12.3 0,5.4 -1.3,9.5 -4,12.3 -2.6,2.8 -6.5,4.2 -11.7,4.2 -5.2,0 -8.9,-1.4 -11.5,-4.2 z m 11.7,-21.8 c -2.4,0 -4.3,0.8 -5.6,2.4 -1.3,1.6 -1.9,4 -1.9,7.1 0,3.1 0.6,5.5 1.9,7.1 1.3,1.7 3.1,2.5 5.5,2.5 2.4,0 4.3,-0.8 5.5,-2.5 1.3,-1.7 1.9,-4 1.9,-7.1 0,-3.1 -0.6,-5.5 -1.9,-7.1 -1.1,-1.6 -3,-2.4 -5.4,-2.4 z"
   id="path3977" />
		<path
   class="st6"
   d="m 1653,1524.2 c 0,2.8 -1,4.9 -3,6.3 -2,1.4 -4.7,2.2 -8.2,2.2 h -16.4 c -0.6,0 -1,-0.3 -0.9,-1 v -29.8 c 0,-0.6 0.3,-1 0.9,-1 h 15.2 c 3.5,0 6.2,0.7 8.2,2.2 2,1.5 2.9,3.7 2.9,6.8 0,3.1 -1.2,5.3 -3.5,6.6 3.2,1.4 4.8,3.9 4.8,7.7 z m -20.7,-10.8 h 8.3 c 2.2,0 3.3,-0.9 3.3,-2.7 0,-1.9 -1.1,-2.9 -3.3,-2.9 h -8.3 z m 0,12.4 h 9.6 c 2.2,0 3.3,-0.9 3.3,-2.7 0,-1.9 -1.1,-2.9 -3.3,-2.9 h -9.6 z"
   id="path3979" />
		<path
   class="st6"
   d="m 1661.9,1529.1 c -2.6,-2.8 -4,-6.9 -4,-12.3 0,-5.4 1.3,-9.5 3.9,-12.3 2.6,-2.8 6.5,-4.2 11.7,-4.2 5.2,0 9.1,1.4 11.7,4.2 2.6,2.8 3.9,6.9 3.9,12.3 0,5.4 -1.3,9.5 -4,12.3 -2.6,2.8 -6.5,4.2 -11.7,4.2 -5,0 -8.9,-1.4 -11.5,-4.2 z m 11.7,-21.8 c -2.4,0 -4.3,0.8 -5.6,2.4 -1.3,1.6 -1.9,4 -1.9,7.1 0,3.1 0.6,5.5 1.9,7.1 1.3,1.7 3.1,2.5 5.5,2.5 2.4,0 4.2,-0.8 5.5,-2.5 1.3,-1.7 1.9,-4 1.9,-7.1 0,-3.1 -0.6,-5.5 -1.9,-7.1 -1.1,-1.6 -3,-2.4 -5.4,-2.4 z"
   id="path3981" />
		<path
   class="st6"
   d="m 1694.7,1507.9 c -0.6,0 -1,-0.3 -1,-0.9 v -5 c 0,-0.6 0.3,-1 1,-1 h 25.7 c 0.6,0 1,0.3 0.9,1 v 5 c 0,0.6 -0.3,1 -0.9,0.9 h -9 v 23.9 c 0,0.6 -0.3,1 -1,1 h -5.9 c -0.6,0 -1,-0.3 -0.9,-1 v -23.9 z"
   id="path3983" />
		<path
   class="st6"
   d="m 1727.4,1500.9 h 5.9 c 0.6,0 1,0.3 0.9,1 v 29.8 c 0,0.6 -0.3,1 -0.9,1 h -5.9 c -0.6,0 -1,-0.3 -0.9,-1 v -29.8 c -0.1,-0.6 0.2,-1 0.9,-1 z"
   id="path3985" />
		<path
   class="st6"
   d="m 1767.8,1526.8 v 5 c 0,0.6 -0.3,1 -1,1 h -12.6 c -4.8,0 -8.4,-1.4 -10.9,-4.1 -2.4,-2.7 -3.7,-6.6 -3.7,-11.8 0,-5.1 1.2,-9.1 3.6,-11.8 2.4,-2.8 6.1,-4.1 10.9,-4.1 h 12.6 c 0.6,0 1,0.3 1,1 v 5 c 0,0.6 -0.3,1 -1,0.9 h -12.6 c -1.9,0 -3.5,0.7 -4.6,2.1 -1.1,1.4 -1.7,3.6 -1.7,6.5 0,3 0.5,5.2 1.6,6.9 1.1,1.6 2.6,2.4 4.7,2.4 h 12.6 c 0.8,0 1.1,0.3 1.1,1 z"
   id="path3987" />
		<path
   class="st6"
   d="m 1785.6,1513.4 h 4.2 c 4.1,0 7.1,0.9 9,2.6 1.9,1.7 2.9,4.1 2.9,7.2 0,3.1 -1,5.5 -3,7.1 -2,1.6 -5,2.5 -8.9,2.5 h -15.2 c -0.6,0 -1,-0.3 -0.9,-1 v -5 c 0,-0.6 0.3,-1 0.9,-1 h 15.2 c 2.5,0 3.8,-0.9 3.8,-2.7 0,-1.9 -1.2,-2.9 -3.8,-2.9 h -4.2 c -4.1,0 -7.1,-0.8 -9,-2.6 -1.9,-1.7 -2.9,-4.1 -2.9,-7.2 0,-3.1 1,-5.5 3,-7.1 2,-1.6 5,-2.5 8.9,-2.5 h 14.3 c 0.6,0 1,0.3 1,1 v 5 c 0,0.6 -0.3,1 -1,0.9 h -14.3 c -2.5,0 -3.8,0.9 -3.8,2.7 0,2 1.3,3 3.8,3 z"
   id="path3989" />
	</g>
	<path
   class="st1"
   d="m 1205.2,1520.1 v 0 c -1.7,1.7 -4.4,1.7 -6.1,0 v 0 c -1.7,-1.7 -1.7,-4.4 0,-6.1 v 0 c 1.7,-1.7 4.4,-1.7 6.1,0 v 0 c 1.7,1.7 1.7,4.5 0,6.1 z"
   id="path3993" />
	<path
   class="st6"
   d="m 1186.9,1514 6.1,-6.1 c 1.7,-1.7 1.7,-4.4 0,-6.1 l -12.2,-12.2 c -1.7,-1.7 -4.4,-1.7 -6.1,0 v 0 c -1.7,1.7 -1.7,4.4 0,6.1 l 6.1,6.1 c 1.7,1.7 1.7,4.4 0,6.1 l -6.1,6.1 c -1.7,1.7 -1.7,4.4 0,6.1 l 12.2,12.2 c 1.7,1.7 4.4,1.7 6.1,0 v 0 c 1.7,-1.7 1.7,-4.4 0,-6.1 l -6.1,-6.1 c -1.7,-1.6 -1.7,-4.4 0,-6.1 z"
   id="path3995" />
	<path
   class="st6"
   d="m 1162.4,1514 6.1,-6.1 c 1.7,-1.7 1.7,-4.4 0,-6.1 v 0 c -1.7,-1.7 -4.4,-1.7 -6.1,0 l -12.2,12.2 c -1.7,1.7 -1.7,4.4 0,6.1 l 24.4,24.4 c 1.7,1.7 4.4,1.7 6.1,0 v 0 c 1.7,-1.7 1.7,-4.4 0,-6.1 l -18.3,-18.3 c -1.7,-1.6 -1.7,-4.4 0,-6.1 z"
   id="path3997" />
</g>









</svg>
