<?xml version="1.0" encoding="UTF-8" standalone="no"?>
<svg
   height="24"
   viewBox="0 0 24 24"
   width="24"
   version="1.1"
   id="svg158"
   sodipodi:docname="icon_support_dark.svg"
   inkscape:version="1.2.2 (b0a8486541, 2022-12-01)"
   xmlns:inkscape="http://www.inkscape.org/namespaces/inkscape"
   xmlns:sodipodi="http://sodipodi.sourceforge.net/DTD/sodipodi-0.dtd"
   xmlns="http://www.w3.org/2000/svg"
   xmlns:svg="http://www.w3.org/2000/svg">
  <defs
     id="defs162" />
  <sodipodi:namedview
     id="namedview160"
     pagecolor="#ffffff"
     bordercolor="#000000"
     borderopacity="0.25"
     inkscape:showpageshadow="2"
     inkscape:pageopacity="0.0"
     inkscape:pagecheckerboard="0"
     inkscape:deskcolor="#d1d1d1"
     showgrid="false"
     inkscape:zoom="34.541667"
     inkscape:cx="12.057901"
     inkscape:cy="12.02895"
     inkscape:window-width="1920"
     inkscape:window-height="1077"
     inkscape:window-x="0"
     inkscape:window-y="0"
     inkscape:window-maximized="1"
     inkscape:current-layer="svg158" />
  <path
     d="m 11.955895,3.8324789 c -4.5138593,0 -8.18618,3.6723207 -8.18618,8.1861801 v 3.391535 c 0,0.838265 0.7343004,1.520174 1.6372361,1.520174 H 6.2255692 A 0.81861806,0.81861806 0 0 0 7.0441873,16.11175 V 11.901597 A 0.81861806,0.81861806 0 0 0 6.2255692,11.082979 H 5.482264 c 0.4551517,-3.1680518 3.1811503,-5.613264 6.473631,-5.613264 3.292482,0 6.01848,2.4452122 6.473632,5.613264 h -0.743305 a 0.81861806,0.81861806 0 0 0 -0.818618,0.818618 v 5.028771 c 0,0.902935 -0.734301,1.637236 -1.637236,1.637236 h -1.637237 v -0.818618 h -3.274472 v 2.455854 h 4.911709 c 1.805871,0 3.274472,-1.468601 3.274472,-3.274472 0.902936,0 1.637236,-0.681909 1.637236,-1.520174 v -3.391535 c 0,-4.5138594 -3.672321,-8.1861801 -8.186181,-8.1861801 z"
     id="path156"
     style="fill:#ffffff;fill-opacity:1;stroke-width:0.818618" />
</svg>
