<?xml version="1.0" encoding="UTF-8" standalone="no"?>
<!-- Created with Inkscape (http://www.inkscape.org/) -->

<svg
   width="26.360294mm"
   height="10.192335mm"
   viewBox="0 0 26.360293 10.192335"
   version="1.1"
   id="svg1"
   xml:space="preserve"
   xmlns="http://www.w3.org/2000/svg"
   xmlns:svg="http://www.w3.org/2000/svg"><defs
     id="defs1" /><g
     id="layer1"
     transform="translate(-23.962089,-100.69588)"><g
       id="g20"
       transform="matrix(1.4572781,0,0,1.4572781,-20.364225,-47.943341)"><path
         class="st1"
         d="m 48.130826,104.18235 v 0 c -0.50012,0.50012 -1.309303,0.50012 -1.809423,0 v 0 c -0.50012,-0.50012 -0.50012,-1.3093 0,-1.80942 v 0 c 0.50012,-0.50012 1.309303,-0.50012 1.809423,0 v 0 c 0.50012,0.50012 0.50012,1.3093 0,1.80942 z"
         id="path4232-9-7"
         style="fill:#7dc6b6;stroke-width:0.0561933" /><path
         class="st0"
         d="m 41.651631,106.80461 -1.80942,1.80942 c -0.50012,0.50012 -1.3093,0.50012 -1.80942,0 l -3.624469,-3.62446 c -0.50012,-0.50012 -0.50012,-1.3093 0,-1.80942 v 0 c 0.500119,-0.50012 1.309299,-0.50012 1.809419,0 l 1.80943,1.80942 c 0.50012,0.50012 1.3093,0.50012 1.80942,0 l 1.80942,-1.80942 c 0.50012,-0.50012 1.3093,-0.50012 1.80942,0 l 3.62447,3.62446 c 0.50012,0.50012 0.50012,1.3093 0,1.80942 v 0 c -0.50012,0.50012 -1.3093,0.50012 -1.80942,0 l -1.80943,-1.80942 c -0.50012,-0.50012 -1.3093,-0.50012 -1.80942,0 z"
         id="path4234-9-4-6"
         style="fill:#7dc6b6;fill-opacity:1;stroke-width:0.0561933" /><path
         class="st0"
         d="m 36.220556,106.80742 1.80942,1.80942 c 0.50012,0.50012 1.3093,0.50012 1.80942,0 l 3.624469,-3.62446 c 0.50012,-0.50012 0.50012,-1.3093 0,-1.80942 v 0 c -0.500119,-0.50012 -1.309299,-0.50012 -1.809419,0 l -1.80943,1.80942 c -0.50012,0.50012 -1.3093,0.50012 -1.80942,0 l -1.80942,-1.80942 c -0.50012,-0.50012 -1.3093,-0.50012 -1.80942,0 l -3.62447,3.62446 c -0.50012,0.50012 -0.50012,1.3093 0,1.80942 v 0 c 0.50012,0.50012 1.3093,0.50012 1.80942,0 l 1.80943,-1.80942 c 0.50012,-0.50012 1.3093,-0.50012 1.80942,0 z"
         id="path4234-9-4"
         style="fill:#1d2e55;fill-opacity:1;stroke-width:0.0561933" /></g></g><style
     type="text/css"
     id="style3742">
	.st0{fill:#1D2E55;}
	.st1{fill:#7DC6B6;}
	.st2{fill:none;}
	.st3{fill:#5AB49F;}
	.st4{font-family:'aAutobusOmnibus';}
	.st5{font-size:43.1707px;}
	.st6{fill:#FFFFFF;}
	.st7{font-size:50.8074px;}
	.st8{font-size:66.7755px;}
	.st9{font-size:41.697px;}
	.st10{font-size:54.8017px;}
	.st11{fill:none;stroke:#FFFFFF;stroke-width:2.1664;stroke-linecap:round;stroke-linejoin:round;stroke-miterlimit:10;}
</style><style
     type="text/css"
     id="style3742-5">
	.st0{fill:#1D2E55;}
	.st1{fill:#7DC6B6;}
	.st2{fill:none;}
	.st3{fill:#5AB49F;}
	.st4{font-family:'aAutobusOmnibus';}
	.st5{font-size:43.1707px;}
	.st6{fill:#FFFFFF;}
	.st7{font-size:50.8074px;}
	.st8{font-size:66.7755px;}
	.st9{font-size:41.697px;}
	.st10{font-size:54.8017px;}
	.st11{fill:none;stroke:#FFFFFF;stroke-width:2.1664;stroke-linecap:round;stroke-linejoin:round;stroke-miterlimit:10;}
</style></svg>
